arm26_elbow_motion
version=1
nRows=476
nColumns=2
inDegrees=no
endheader
time	r_elbow_flex
32.550786	1.13827629
32.558275	1.12754594
32.582170	1.11648471
32.592014	1.10555808
32.611451	1.09510006
32.621794	1.08450257
32.652205	1.07374727
32.661110	1.06338252
32.700952	1.05406786
32.712044	1.04579983
32.723847	1.03757635
32.735520	1.02846361
32.751838	1.01819060
32.762082	1.00711977
32.771215	0.99590599
32.794578	0.98526630
32.809933	0.97566843
32.820925	0.96726453
32.846246	0.96015303
32.862242	0.95498341
32.886364	0.95155834
32.895551	0.94913914
32.942134	0.94676468
32.953440	0.94394676
32.969600	0.94084253
32.986611	0.93818687
32.996777	0.93626035
33.005459	0.93482413
33.021754	0.93321851
33.038497	0.93142459
33.059223	0.92994186
33.070305	0.92888364
33.102681	0.92812911
33.112272	0.92740659
33.120426	0.92683517
33.136589	0.92640961
33.273788	0.92605716
33.287639	0.92544236
33.300287	0.92521161
33.317105	0.92510691
33.334029	0.92525188
33.350536	0.92541408
33.358256	0.92556212
33.385882	0.92587836
33.391287	0.92665157
33.400151	0.92743187
33.417107	0.92837097
33.424483	0.92916977
33.432785	0.92990969
33.449549	0.93075899
33.466477	0.93160554
33.482692	0.93215748
33.492267	0.93260364
33.515421	0.93312402
33.541451	0.93391874
33.549641	0.93507408
33.562055	0.93652559
33.583483	0.93830038
33.591026	0.94064041
33.639387	0.94318493
33.653032	0.94584959
33.664684	0.94890228
33.686581	0.95292213
33.698480	0.95827757
33.712523	0.96479160
33.721515	0.97157986
33.737536	0.97879937
33.752986	0.98739817
33.769194	0.99764601
33.783487	1.00751480
33.803059	1.01759041
33.819361	1.02831793
33.828700	1.04022200
33.842138	1.05399767
33.856226	1.06913567
33.875025	1.08413611
33.887356	1.10010465
33.926648	1.11605261
33.939619	1.13242859
33.962972	1.15015081
33.979213	1.16861273
33.990646	1.18705246
33.999145	1.20638946
34.015500	1.22696287
34.030789	1.24872406
34.045853	1.27085340
34.062102	1.29315015
34.070191	1.31562630
34.088262	1.33867081
34.102924	1.36283563
34.116820	1.38820559
34.135412	1.41526542
34.151973	1.44413253
34.181434	1.47429335
34.191423	1.50515814
34.217154	1.53654886
34.224108	1.56872854
34.249930	1.60118997
34.258960	1.63234493
34.267524	1.66256546
34.280614	1.69212136
34.296181	1.72151398
34.334096	1.75122177
34.349983	1.78007685
34.367043	1.80810183
34.385088	1.83662489
34.402706	1.86419066
34.419077	1.89182633
34.451759	1.91867809
34.470205	1.94371421
34.484371	1.96769213
34.499881	1.99145020
34.509368	2.01381563
34.517464	2.03708650
34.534720	2.06011287
34.567594	2.08146176
34.583877	2.10214959
34.600014	2.12187972
34.616598	2.13988835
34.626837	2.15773079
34.652318	2.17540602
34.660004	2.19248859
34.668860	2.21126857
34.684727	2.23033555
34.720391	2.24930061
34.726437	2.26801196
34.737265	2.28558267
34.784620	2.30063456
34.793458	2.31268123
34.804370	2.32108213
34.819584	2.32612782
34.835428	2.32759343
34.852890	2.32560792
34.868938	2.32033622
34.886051	2.31167610
34.901336	2.30026690
34.917869	2.28636165
34.926285	2.27060870
34.934310	2.25336771
34.942412	2.23398190
34.984517	2.21276752
35.001918	2.19006720
35.052079	2.16629466
35.068100	2.14085319
35.084621	2.11460727
35.101180	2.08788932
35.116844	2.05625226
35.133077	2.02540447
35.149694	1.99677384
35.167050	1.96891704
35.181815	1.94136160
35.200428	1.91090514
35.216884	1.87981623
35.224540	1.85594678
35.240881	1.83454721
35.250598	1.80975554
35.266215	1.78077676
35.276042	1.75028124
35.301049	1.72532081
35.310324	1.70405853
35.326428	1.68062102
35.343306	1.65000047
35.366033	1.61681011
35.382629	1.58719537
35.393558	1.56003980
35.402143	1.52405518
35.416234	1.47926522
35.467228	1.43647299
35.485498	1.40141597
35.500589	1.36945244
35.515115	1.33556660
35.519588	1.30191010
35.535358	1.27810315
35.542686	1.26519291
35.558737	1.25528722
35.568817	1.24376231
35.589648	1.23355909
35.604498	1.22596124
35.618660	1.22011993
35.637253	1.21441612
35.650676	1.20751336
35.666313	1.19989712
35.675984	1.19413844
35.700813	1.19270759
35.716241	1.19614292
35.761985	1.20336656
35.787074	1.21296190
35.797718	1.22479475
35.816407	1.24046297
35.826311	1.26061892
35.834419	1.28296405
35.866523	1.30627823
35.885532	1.33126742
35.896703	1.35786719
35.919858	1.38592027
35.928117	1.41531854
35.951763	1.44811756
35.969261	1.48548755
35.976078	1.52588536
35.984582	1.56710324
36.001860	1.60894694
36.018449	1.65133224
36.025748	1.69285633
36.033833	1.73272501
36.049958	1.77089773
36.057892	1.80708480
36.068642	1.84355003
36.093701	1.88028002
36.117132	1.91705247
36.127348	1.95315402
36.149467	1.98470677
36.158543	2.01188309
36.182351	2.03835582
36.218701	2.06141716
36.241577	2.08329475
36.253680	2.10515219
36.268055	2.12634182
36.285180	2.15077588
36.293853	2.17873137
36.310061	2.20879405
36.325898	2.24146240
36.351716	2.27435302
36.368421	2.30618902
36.375021	2.33778720
36.388546	2.36735122
36.394134	2.39322085
36.418373	2.41374692
36.432255	2.42879097
36.451453	2.43772875
36.484156	2.44029613
36.500695	2.43664071
36.518800	2.42636535
36.550135	2.41041333
36.568357	2.38979930
36.574118	2.36453471
36.590311	2.33478426
36.599724	2.30105904
36.607750	2.26312236
36.632639	2.22188104
36.641428	2.18092740
36.666436	2.14123912
36.677345	2.10127108
36.699119	2.06237164
36.715769	2.02451523
36.732835	1.98780537
36.753386	1.95080353
36.766223	1.91116823
36.788525	1.86374940
36.802048	1.81485110
36.812453	1.76953924
36.825673	1.72536595
36.845192	1.67623796
36.860162	1.62426945
36.872051	1.57612212
36.896919	1.53535334
36.909915	1.49393218
36.950547	1.44538961
36.965879	1.39842171
36.982951	1.36554166
36.990632	1.34238156
37.005878	1.31816795
37.015926	1.29546233
37.033545	1.28093168
37.084261	1.27372573
37.100599	1.26632863
37.116914	1.25233532
37.133715	1.23524637
37.144154	1.21980423
37.168143	1.20674547
37.182482	1.19445218
37.199341	1.18428243
37.208961	1.17830922
37.234648	1.17812621
37.243031	1.18692455
37.265683	1.19994731
37.275274	1.21661090
37.301221	1.23685972
37.308549	1.26126358
37.321785	1.28815786
37.332920	1.31656481
37.349388	1.34376000
37.366293	1.37325726
37.382709	1.40293731
37.391023	1.43109672
37.399766	1.45760791
37.416051	1.48574550
37.433902	1.51652151
37.440802	1.54865587
37.448932	1.58034831
37.502308	1.61079130
37.516403	1.64167226
37.532890	1.67521363
37.541017	1.70860698
37.570131	1.73947707
37.582462	1.76907335
37.590056	1.80017396
37.599638	1.83256426
37.617287	1.86564154
37.625684	1.89805190
37.653420	1.92725664
37.668810	1.95897611
37.677113	1.99068715
37.699423	2.02223206
37.716225	2.05581333
37.735004	2.09306920
37.745868	2.13390609
37.764349	2.18020094
37.813217	2.22585903
37.864681	2.27174057
37.888204	2.31598069
37.891714	2.35665858
37.900582	2.38922254
37.915490	2.41241145
37.932146	2.42655969
37.947361	2.43196955
37.950123	2.42835005
37.958668	2.41612661
37.983174	2.39595103
38.016137	2.37024197
38.028214	2.33900004
38.034626	2.30284057
38.080734	2.26221064
38.101114	2.21913686
38.110435	2.17539698
38.119296	2.13116366
38.135682	2.08517637
38.152144	2.04151378
38.160622	1.99837182
38.169215	1.95551655
38.186448	1.91372421
38.203440	1.87427616
38.217158	1.83842329
38.233795	1.80492036
38.251862	1.76751008
38.268437	1.72564240
38.275794	1.68278086
38.286110	1.64301965
38.319206	1.60181678
38.326241	1.55443515
38.351385	1.50535023
38.385807	1.46325683
38.432632	1.43213946
38.442077	1.40017206
38.467471	1.36829095
38.485782	1.34002848
38.490409	1.31924615
38.506118	1.30279832
38.518979	1.28488751
38.525512	1.26520298
38.533609	1.25228150
38.549410	1.23924217
38.568062	1.22613047
38.577242	1.21673552
38.597368	1.21331626
38.606556	1.21284409
38.622548	1.21348039
38.632194	1.21841287
38.640841	1.22897366
38.676506	1.24235300
38.685802	1.25413952
38.751023	1.26569131
38.767469	1.28256275
38.784532	1.30706529
38.792361	1.33378062
38.804797	1.36161975
38.819282	1.39318696
38.833688	1.42910267
38.837801	1.46607045
38.850456	1.50166978
38.867767	1.53543797
38.876867	1.57038514
38.900758	1.60575077
38.949341	1.64017929
38.958584	1.67535258
38.969377	1.71315151
38.976301	1.75061708
38.985975	1.78447058
39.002785	1.81517787
39.013891	1.84446506
39.026618	1.87286038
39.035895	1.90048641
39.050568	1.92726512
39.067388	1.95298294
39.076068	1.98059463
39.101493	2.01261194
39.127082	2.04497160
39.136187	2.07464589
39.152483	2.09805929
39.166751	2.11530106
39.183116	2.12950666
39.193527	2.14198482
39.211017	2.15193553
39.227620	2.16360835
39.246735	2.18005074
39.272253	2.20426461
39.288046	2.23478826
39.308222	2.27034137
39.319918	2.30744861
39.367629	2.34356993
39.384171	2.37664566
39.390579	2.40493638
39.433194	2.42640067
39.439512	2.44125525
39.455096	2.44346095
39.467466	2.44346095
39.474708	2.44346095
39.500940	2.43715264
39.516650	2.42043819
39.534174	2.39802513
39.540051	2.36994196
39.550603	2.33685986
39.568405	2.29999885
39.572587	2.26075813
39.582154	2.21988755
39.615252	2.17790577
39.621958	2.13420494
39.648532	2.09178753
39.655404	2.05063301
39.665388	2.00996180
39.681776	1.96618282
39.700675	1.92095851
39.723315	1.87758141
39.739959	1.83635154
39.759136	1.79198492
39.772355	1.74160548
39.799605	1.68503789
39.805552	1.62556714
39.814682	1.56736498
39.831154	1.51656820
39.839376	1.47543684
39.881269	1.44183553
39.888055	1.41711094
39.912551	1.40262429
39.920780	1.39656575
39.945196	1.39076631
39.961143	1.37539302
39.992480	1.35088006
40.003852	1.32478412
40.020163	1.30097802
40.034740	1.27999655
40.044607	1.26452527
40.065298	1.25654449
40.085688	1.25584470
40.099686	1.26020873
40.108315	1.26743697
40.118565	1.27628733
40.132895	1.28610808
40.150953	1.29608223
40.184191	1.30662851
40.199002	1.31871552
40.217179	1.33352222
40.225513	1.35124796
40.252867	1.37058604
40.265047	1.39116541
40.272931	1.41314245
40.300458	1.43631817
40.308348	1.45975386
40.334884	1.48291503
40.344638	1.50646636
40.367415	1.53063947
40.383695	1.55563975
40.415031	1.58113242
40.432778	1.60771618
40.450398	1.63646051
40.462087	1.66744974
40.469778	1.69965970
40.481483	1.73293868
40.501521	1.76475157
40.519732	1.79471792
40.528204	1.82260569
40.541383	1.84756144
40.551777	1.86989682
40.599467	1.89259304
40.617111	1.91436993
40.636629	1.93585810
40.651236	1.95727072
